<svg id="visual" viewBox="0 0 540 960" width="540" height="960" xmlns="http://www.w3.org/2000/svg" xmlns:xlink="http://www.w3.org/1999/xlink" version="1.1"><path d="M0 289L60 222L120 203L180 155L240 164L300 251L360 241L420 212L480 260L540 222L540 0L480 0L420 0L360 0L300 0L240 0L180 0L120 0L60 0L0 0Z" fill="#00cc8e"></path><path d="M0 462L60 375L120 308L180 327L240 299L300 423L360 375L420 347L480 366L540 356L540 220L480 258L420 210L360 239L300 249L240 162L180 153L120 201L60 220L0 287Z" fill="#00bd8b"></path><path d="M0 558L60 433L120 433L180 443L240 423L300 481L360 481L420 433L480 443L540 433L540 354L480 364L420 345L360 373L300 421L240 297L180 325L120 306L60 373L0 460Z" fill="#00ae87"></path><path d="M0 654L60 596L120 539L180 519L240 577L300 587L360 644L420 577L480 596L540 510L540 431L480 441L420 431L360 479L300 479L240 421L180 441L120 431L60 431L0 556Z" fill="#00a081"></path><path d="M0 894L60 846L120 903L180 903L240 865L300 827L360 875L420 884L480 875L540 836L540 508L480 594L420 575L360 642L300 585L240 575L180 517L120 537L60 594L0 652Z" fill="#00917b"></path><path d="M0 961L60 961L120 961L180 961L240 961L300 961L360 961L420 961L480 961L540 961L540 834L480 873L420 882L360 873L300 825L240 863L180 901L120 901L60 844L0 892Z" fill="#038373"></path></svg>